<svg xmlns="http://www.w3.org/2000/svg" width="1600" height="1000" viewBox="0 0 1600 1000" fill="none">
  <defs>
    <linearGradient id="bg2" x1="0" y1="0" x2="1600" y2="1000" gradientUnits="userSpaceOnUse">
      <stop stop-color="#FDF2F8"/>
      <stop offset="1" stop-color="#FFE4E6"/>
    </linearGradient>
  </defs>
  <rect width="1600" height="1000" fill="url(#bg2)"/>
  <rect x="120" y="110" width="1360" height="780" rx="34" fill="white"/>
  <rect x="170" y="170" width="1260" height="92" rx="18" fill="#FCE7F3"/>
  <rect x="170" y="290" width="740" height="540" rx="20" fill="#DB2777" fill-opacity="0.12"/>
  <rect x="940" y="290" width="490" height="250" rx="20" fill="#7C3AED" fill-opacity="0.18"/>
  <rect x="940" y="560" width="490" height="270" rx="20" fill="#DB2777" fill-opacity="0.2"/>
  <rect x="210" y="220" width="360" height="20" rx="8" fill="#DB2777" fill-opacity="0.28"/>
  <rect x="210" y="340" width="420" height="28" rx="9" fill="#3B0764" fill-opacity="0.22"/>
  <rect x="210" y="385" width="540" height="18" rx="7" fill="#3B0764" fill-opacity="0.14"/>
  <rect x="210" y="417" width="500" height="18" rx="7" fill="#3B0764" fill-opacity="0.14"/>
  <rect x="210" y="470" width="220" height="56" rx="14" fill="#DB2777"/>
  <rect x="450" y="470" width="220" height="56" rx="14" fill="#7C3AED" fill-opacity="0.55"/>
  <text x="212" y="358" fill="#3B0764" font-family="Inter, Arial, sans-serif" font-size="40" font-weight="700">Retail Shopfront Growth Site</text>
  <text x="175" y="780" fill="#3B0764" fill-opacity="0.65" font-family="Inter, Arial, sans-serif" font-size="28" font-weight="500">Lifestyle Commerce • ImproveYourSite Showcase 02</text>
</svg>
