<?xml version="1.0" standalone="no"?>
<svg xmlns="http://www.w3.org/2000/svg" version="1.1" width="999" height="999">
	<!-- Created with https://api.qrserver.com (QR Code API, see goQR.me/api for information) -->
	<title>QR Code</title>
	<desc>https://improveyoursite.com/?utm_source=offline_qr&amp;utm_medium=print&amp;utm_campaign=money_leak_scan#contact</desc>
	<rect style="fill:rgb(255, 255, 255);fill-opacity:1" x="0" y="0" width="999" height="999" />
	<g id="elements">
		<path style="fill:rgb(0, 0, 0)" d="M 0,0 l 27,0 0,27 -27,0 z M 27,0 l 27,0 0,27 -27,0 z M 54,0 l 27,0 0,27 -27,0 z M 81,0 l 27,0 0,27 -27,0 z M 108,0 l 27,0 0,27 -27,0 z M 135,0 l 27,0 0,27 -27,0 z M 162,0 l 27,0 0,27 -27,0 z M 324,0 l 27,0 0,27 -27,0 z M 351,0 l 27,0 0,27 -27,0 z M 378,0 l 27,0 0,27 -27,0 z M 405,0 l 27,0 0,27 -27,0 z M 432,0 l 27,0 0,27 -27,0 z M 513,0 l 27,0 0,27 -27,0 z M 540,0 l 27,0 0,27 -27,0 z M 567,0 l 27,0 0,27 -27,0 z M 621,0 l 27,0 0,27 -27,0 z M 648,0 l 27,0 0,27 -27,0 z M 675,0 l 27,0 0,27 -27,0 z M 702,0 l 27,0 0,27 -27,0 z M 729,0 l 27,0 0,27 -27,0 z M 756,0 l 27,0 0,27 -27,0 z M 810,0 l 27,0 0,27 -27,0 z M 837,0 l 27,0 0,27 -27,0 z M 864,0 l 27,0 0,27 -27,0 z M 891,0 l 27,0 0,27 -27,0 z M 918,0 l 27,0 0,27 -27,0 z M 945,0 l 27,0 0,27 -27,0 z M 972,0 l 27,0 0,27 -27,0 z M 0,27 l 27,0 0,27 -27,0 z M 162,27 l 27,0 0,27 -27,0 z M 216,27 l 27,0 0,27 -27,0 z M 270,27 l 27,0 0,27 -27,0 z M 324,27 l 27,0 0,27 -27,0 z M 351,27 l 27,0 0,27 -27,0 z M 378,27 l 27,0 0,27 -27,0 z M 405,27 l 27,0 0,27 -27,0 z M 432,27 l 27,0 0,27 -27,0 z M 594,27 l 27,0 0,27 -27,0 z M 648,27 l 27,0 0,27 -27,0 z M 675,27 l 27,0 0,27 -27,0 z M 702,27 l 27,0 0,27 -27,0 z M 729,27 l 27,0 0,27 -27,0 z M 756,27 l 27,0 0,27 -27,0 z M 810,27 l 27,0 0,27 -27,0 z M 972,27 l 27,0 0,27 -27,0 z M 0,54 l 27,0 0,27 -27,0 z M 54,54 l 27,0 0,27 -27,0 z M 81,54 l 27,0 0,27 -27,0 z M 108,54 l 27,0 0,27 -27,0 z M 162,54 l 27,0 0,27 -27,0 z M 378,54 l 27,0 0,27 -27,0 z M 405,54 l 27,0 0,27 -27,0 z M 513,54 l 27,0 0,27 -27,0 z M 540,54 l 27,0 0,27 -27,0 z M 567,54 l 27,0 0,27 -27,0 z M 621,54 l 27,0 0,27 -27,0 z M 648,54 l 27,0 0,27 -27,0 z M 702,54 l 27,0 0,27 -27,0 z M 729,54 l 27,0 0,27 -27,0 z M 756,54 l 27,0 0,27 -27,0 z M 810,54 l 27,0 0,27 -27,0 z M 864,54 l 27,0 0,27 -27,0 z M 891,54 l 27,0 0,27 -27,0 z M 918,54 l 27,0 0,27 -27,0 z M 972,54 l 27,0 0,27 -27,0 z M 0,81 l 27,0 0,27 -27,0 z M 54,81 l 27,0 0,27 -27,0 z M 81,81 l 27,0 0,27 -27,0 z M 108,81 l 27,0 0,27 -27,0 z M 162,81 l 27,0 0,27 -27,0 z M 216,81 l 27,0 0,27 -27,0 z M 243,81 l 27,0 0,27 -27,0 z M 270,81 l 27,0 0,27 -27,0 z M 351,81 l 27,0 0,27 -27,0 z M 378,81 l 27,0 0,27 -27,0 z M 432,81 l 27,0 0,27 -27,0 z M 459,81 l 27,0 0,27 -27,0 z M 594,81 l 27,0 0,27 -27,0 z M 675,81 l 27,0 0,27 -27,0 z M 702,81 l 27,0 0,27 -27,0 z M 810,81 l 27,0 0,27 -27,0 z M 864,81 l 27,0 0,27 -27,0 z M 891,81 l 27,0 0,27 -27,0 z M 918,81 l 27,0 0,27 -27,0 z M 972,81 l 27,0 0,27 -27,0 z M 0,108 l 27,0 0,27 -27,0 z M 54,108 l 27,0 0,27 -27,0 z M 81,108 l 27,0 0,27 -27,0 z M 108,108 l 27,0 0,27 -27,0 z M 162,108 l 27,0 0,27 -27,0 z M 243,108 l 27,0 0,27 -27,0 z M 297,108 l 27,0 0,27 -27,0 z M 351,108 l 27,0 0,27 -27,0 z M 432,108 l 27,0 0,27 -27,0 z M 513,108 l 27,0 0,27 -27,0 z M 567,108 l 27,0 0,27 -27,0 z M 594,108 l 27,0 0,27 -27,0 z M 621,108 l 27,0 0,27 -27,0 z M 702,108 l 27,0 0,27 -27,0 z M 756,108 l 27,0 0,27 -27,0 z M 810,108 l 27,0 0,27 -27,0 z M 864,108 l 27,0 0,27 -27,0 z M 891,108 l 27,0 0,27 -27,0 z M 918,108 l 27,0 0,27 -27,0 z M 972,108 l 27,0 0,27 -27,0 z M 0,135 l 27,0 0,27 -27,0 z M 162,135 l 27,0 0,27 -27,0 z M 216,135 l 27,0 0,27 -27,0 z M 243,135 l 27,0 0,27 -27,0 z M 378,135 l 27,0 0,27 -27,0 z M 405,135 l 27,0 0,27 -27,0 z M 432,135 l 27,0 0,27 -27,0 z M 567,135 l 27,0 0,27 -27,0 z M 594,135 l 27,0 0,27 -27,0 z M 675,135 l 27,0 0,27 -27,0 z M 729,135 l 27,0 0,27 -27,0 z M 810,135 l 27,0 0,27 -27,0 z M 972,135 l 27,0 0,27 -27,0 z M 0,162 l 27,0 0,27 -27,0 z M 27,162 l 27,0 0,27 -27,0 z M 54,162 l 27,0 0,27 -27,0 z M 81,162 l 27,0 0,27 -27,0 z M 108,162 l 27,0 0,27 -27,0 z M 135,162 l 27,0 0,27 -27,0 z M 162,162 l 27,0 0,27 -27,0 z M 216,162 l 27,0 0,27 -27,0 z M 270,162 l 27,0 0,27 -27,0 z M 324,162 l 27,0 0,27 -27,0 z M 378,162 l 27,0 0,27 -27,0 z M 432,162 l 27,0 0,27 -27,0 z M 486,162 l 27,0 0,27 -27,0 z M 540,162 l 27,0 0,27 -27,0 z M 594,162 l 27,0 0,27 -27,0 z M 648,162 l 27,0 0,27 -27,0 z M 702,162 l 27,0 0,27 -27,0 z M 756,162 l 27,0 0,27 -27,0 z M 810,162 l 27,0 0,27 -27,0 z M 837,162 l 27,0 0,27 -27,0 z M 864,162 l 27,0 0,27 -27,0 z M 891,162 l 27,0 0,27 -27,0 z M 918,162 l 27,0 0,27 -27,0 z M 945,162 l 27,0 0,27 -27,0 z M 972,162 l 27,0 0,27 -27,0 z M 243,189 l 27,0 0,27 -27,0 z M 270,189 l 27,0 0,27 -27,0 z M 297,189 l 27,0 0,27 -27,0 z M 324,189 l 27,0 0,27 -27,0 z M 405,189 l 27,0 0,27 -27,0 z M 432,189 l 27,0 0,27 -27,0 z M 486,189 l 27,0 0,27 -27,0 z M 540,189 l 27,0 0,27 -27,0 z M 567,189 l 27,0 0,27 -27,0 z M 594,189 l 27,0 0,27 -27,0 z M 648,189 l 27,0 0,27 -27,0 z M 702,189 l 27,0 0,27 -27,0 z M 729,189 l 27,0 0,27 -27,0 z M 756,189 l 27,0 0,27 -27,0 z M 0,216 l 27,0 0,27 -27,0 z M 27,216 l 27,0 0,27 -27,0 z M 54,216 l 27,0 0,27 -27,0 z M 81,216 l 27,0 0,27 -27,0 z M 108,216 l 27,0 0,27 -27,0 z M 162,216 l 27,0 0,27 -27,0 z M 189,216 l 27,0 0,27 -27,0 z M 216,216 l 27,0 0,27 -27,0 z M 243,216 l 27,0 0,27 -27,0 z M 324,216 l 27,0 0,27 -27,0 z M 351,216 l 27,0 0,27 -27,0 z M 378,216 l 27,0 0,27 -27,0 z M 405,216 l 27,0 0,27 -27,0 z M 459,216 l 27,0 0,27 -27,0 z M 540,216 l 27,0 0,27 -27,0 z M 594,216 l 27,0 0,27 -27,0 z M 675,216 l 27,0 0,27 -27,0 z M 702,216 l 27,0 0,27 -27,0 z M 729,216 l 27,0 0,27 -27,0 z M 756,216 l 27,0 0,27 -27,0 z M 783,216 l 27,0 0,27 -27,0 z M 837,216 l 27,0 0,27 -27,0 z M 891,216 l 27,0 0,27 -27,0 z M 945,216 l 27,0 0,27 -27,0 z M 0,243 l 27,0 0,27 -27,0 z M 108,243 l 27,0 0,27 -27,0 z M 189,243 l 27,0 0,27 -27,0 z M 216,243 l 27,0 0,27 -27,0 z M 243,243 l 27,0 0,27 -27,0 z M 270,243 l 27,0 0,27 -27,0 z M 297,243 l 27,0 0,27 -27,0 z M 432,243 l 27,0 0,27 -27,0 z M 459,243 l 27,0 0,27 -27,0 z M 486,243 l 27,0 0,27 -27,0 z M 513,243 l 27,0 0,27 -27,0 z M 540,243 l 27,0 0,27 -27,0 z M 567,243 l 27,0 0,27 -27,0 z M 594,243 l 27,0 0,27 -27,0 z M 621,243 l 27,0 0,27 -27,0 z M 675,243 l 27,0 0,27 -27,0 z M 756,243 l 27,0 0,27 -27,0 z M 783,243 l 27,0 0,27 -27,0 z M 837,243 l 27,0 0,27 -27,0 z M 891,243 l 27,0 0,27 -27,0 z M 918,243 l 27,0 0,27 -27,0 z M 945,243 l 27,0 0,27 -27,0 z M 54,270 l 27,0 0,27 -27,0 z M 108,270 l 27,0 0,27 -27,0 z M 162,270 l 27,0 0,27 -27,0 z M 189,270 l 27,0 0,27 -27,0 z M 216,270 l 27,0 0,27 -27,0 z M 243,270 l 27,0 0,27 -27,0 z M 270,270 l 27,0 0,27 -27,0 z M 378,270 l 27,0 0,27 -27,0 z M 405,270 l 27,0 0,27 -27,0 z M 567,270 l 27,0 0,27 -27,0 z M 594,270 l 27,0 0,27 -27,0 z M 675,270 l 27,0 0,27 -27,0 z M 702,270 l 27,0 0,27 -27,0 z M 729,270 l 27,0 0,27 -27,0 z M 756,270 l 27,0 0,27 -27,0 z M 810,270 l 27,0 0,27 -27,0 z M 837,270 l 27,0 0,27 -27,0 z M 891,270 l 27,0 0,27 -27,0 z M 918,270 l 27,0 0,27 -27,0 z M 972,270 l 27,0 0,27 -27,0 z M 27,297 l 27,0 0,27 -27,0 z M 54,297 l 27,0 0,27 -27,0 z M 108,297 l 27,0 0,27 -27,0 z M 189,297 l 27,0 0,27 -27,0 z M 216,297 l 27,0 0,27 -27,0 z M 243,297 l 27,0 0,27 -27,0 z M 324,297 l 27,0 0,27 -27,0 z M 378,297 l 27,0 0,27 -27,0 z M 432,297 l 27,0 0,27 -27,0 z M 513,297 l 27,0 0,27 -27,0 z M 540,297 l 27,0 0,27 -27,0 z M 567,297 l 27,0 0,27 -27,0 z M 621,297 l 27,0 0,27 -27,0 z M 702,297 l 27,0 0,27 -27,0 z M 729,297 l 27,0 0,27 -27,0 z M 756,297 l 27,0 0,27 -27,0 z M 837,297 l 27,0 0,27 -27,0 z M 891,297 l 27,0 0,27 -27,0 z M 945,297 l 27,0 0,27 -27,0 z M 54,324 l 27,0 0,27 -27,0 z M 81,324 l 27,0 0,27 -27,0 z M 108,324 l 27,0 0,27 -27,0 z M 135,324 l 27,0 0,27 -27,0 z M 162,324 l 27,0 0,27 -27,0 z M 216,324 l 27,0 0,27 -27,0 z M 270,324 l 27,0 0,27 -27,0 z M 324,324 l 27,0 0,27 -27,0 z M 351,324 l 27,0 0,27 -27,0 z M 378,324 l 27,0 0,27 -27,0 z M 513,324 l 27,0 0,27 -27,0 z M 594,324 l 27,0 0,27 -27,0 z M 621,324 l 27,0 0,27 -27,0 z M 675,324 l 27,0 0,27 -27,0 z M 702,324 l 27,0 0,27 -27,0 z M 729,324 l 27,0 0,27 -27,0 z M 756,324 l 27,0 0,27 -27,0 z M 783,324 l 27,0 0,27 -27,0 z M 810,324 l 27,0 0,27 -27,0 z M 837,324 l 27,0 0,27 -27,0 z M 864,324 l 27,0 0,27 -27,0 z M 891,324 l 27,0 0,27 -27,0 z M 918,324 l 27,0 0,27 -27,0 z M 972,324 l 27,0 0,27 -27,0 z M 0,351 l 27,0 0,27 -27,0 z M 27,351 l 27,0 0,27 -27,0 z M 81,351 l 27,0 0,27 -27,0 z M 189,351 l 27,0 0,27 -27,0 z M 216,351 l 27,0 0,27 -27,0 z M 270,351 l 27,0 0,27 -27,0 z M 297,351 l 27,0 0,27 -27,0 z M 432,351 l 27,0 0,27 -27,0 z M 459,351 l 27,0 0,27 -27,0 z M 513,351 l 27,0 0,27 -27,0 z M 540,351 l 27,0 0,27 -27,0 z M 702,351 l 27,0 0,27 -27,0 z M 756,351 l 27,0 0,27 -27,0 z M 783,351 l 27,0 0,27 -27,0 z M 837,351 l 27,0 0,27 -27,0 z M 918,351 l 27,0 0,27 -27,0 z M 945,351 l 27,0 0,27 -27,0 z M 0,378 l 27,0 0,27 -27,0 z M 27,378 l 27,0 0,27 -27,0 z M 54,378 l 27,0 0,27 -27,0 z M 81,378 l 27,0 0,27 -27,0 z M 162,378 l 27,0 0,27 -27,0 z M 324,378 l 27,0 0,27 -27,0 z M 405,378 l 27,0 0,27 -27,0 z M 432,378 l 27,0 0,27 -27,0 z M 459,378 l 27,0 0,27 -27,0 z M 540,378 l 27,0 0,27 -27,0 z M 567,378 l 27,0 0,27 -27,0 z M 594,378 l 27,0 0,27 -27,0 z M 702,378 l 27,0 0,27 -27,0 z M 729,378 l 27,0 0,27 -27,0 z M 756,378 l 27,0 0,27 -27,0 z M 810,378 l 27,0 0,27 -27,0 z M 837,378 l 27,0 0,27 -27,0 z M 864,378 l 27,0 0,27 -27,0 z M 918,378 l 27,0 0,27 -27,0 z M 945,378 l 27,0 0,27 -27,0 z M 972,378 l 27,0 0,27 -27,0 z M 0,405 l 27,0 0,27 -27,0 z M 27,405 l 27,0 0,27 -27,0 z M 54,405 l 27,0 0,27 -27,0 z M 81,405 l 27,0 0,27 -27,0 z M 135,405 l 27,0 0,27 -27,0 z M 378,405 l 27,0 0,27 -27,0 z M 432,405 l 27,0 0,27 -27,0 z M 567,405 l 27,0 0,27 -27,0 z M 594,405 l 27,0 0,27 -27,0 z M 702,405 l 27,0 0,27 -27,0 z M 756,405 l 27,0 0,27 -27,0 z M 783,405 l 27,0 0,27 -27,0 z M 837,405 l 27,0 0,27 -27,0 z M 864,405 l 27,0 0,27 -27,0 z M 891,405 l 27,0 0,27 -27,0 z M 972,405 l 27,0 0,27 -27,0 z M 54,432 l 27,0 0,27 -27,0 z M 81,432 l 27,0 0,27 -27,0 z M 135,432 l 27,0 0,27 -27,0 z M 162,432 l 27,0 0,27 -27,0 z M 216,432 l 27,0 0,27 -27,0 z M 351,432 l 27,0 0,27 -27,0 z M 378,432 l 27,0 0,27 -27,0 z M 459,432 l 27,0 0,27 -27,0 z M 513,432 l 27,0 0,27 -27,0 z M 567,432 l 27,0 0,27 -27,0 z M 594,432 l 27,0 0,27 -27,0 z M 648,432 l 27,0 0,27 -27,0 z M 675,432 l 27,0 0,27 -27,0 z M 702,432 l 27,0 0,27 -27,0 z M 756,432 l 27,0 0,27 -27,0 z M 783,432 l 27,0 0,27 -27,0 z M 810,432 l 27,0 0,27 -27,0 z M 864,432 l 27,0 0,27 -27,0 z M 891,432 l 27,0 0,27 -27,0 z M 918,432 l 27,0 0,27 -27,0 z M 972,432 l 27,0 0,27 -27,0 z M 0,459 l 27,0 0,27 -27,0 z M 27,459 l 27,0 0,27 -27,0 z M 54,459 l 27,0 0,27 -27,0 z M 189,459 l 27,0 0,27 -27,0 z M 216,459 l 27,0 0,27 -27,0 z M 243,459 l 27,0 0,27 -27,0 z M 270,459 l 27,0 0,27 -27,0 z M 297,459 l 27,0 0,27 -27,0 z M 351,459 l 27,0 0,27 -27,0 z M 432,459 l 27,0 0,27 -27,0 z M 486,459 l 27,0 0,27 -27,0 z M 513,459 l 27,0 0,27 -27,0 z M 540,459 l 27,0 0,27 -27,0 z M 594,459 l 27,0 0,27 -27,0 z M 621,459 l 27,0 0,27 -27,0 z M 702,459 l 27,0 0,27 -27,0 z M 837,459 l 27,0 0,27 -27,0 z M 918,459 l 27,0 0,27 -27,0 z M 945,459 l 27,0 0,27 -27,0 z M 0,486 l 27,0 0,27 -27,0 z M 27,486 l 27,0 0,27 -27,0 z M 54,486 l 27,0 0,27 -27,0 z M 135,486 l 27,0 0,27 -27,0 z M 162,486 l 27,0 0,27 -27,0 z M 189,486 l 27,0 0,27 -27,0 z M 270,486 l 27,0 0,27 -27,0 z M 324,486 l 27,0 0,27 -27,0 z M 351,486 l 27,0 0,27 -27,0 z M 405,486 l 27,0 0,27 -27,0 z M 432,486 l 27,0 0,27 -27,0 z M 459,486 l 27,0 0,27 -27,0 z M 486,486 l 27,0 0,27 -27,0 z M 594,486 l 27,0 0,27 -27,0 z M 648,486 l 27,0 0,27 -27,0 z M 675,486 l 27,0 0,27 -27,0 z M 729,486 l 27,0 0,27 -27,0 z M 756,486 l 27,0 0,27 -27,0 z M 837,486 l 27,0 0,27 -27,0 z M 918,486 l 27,0 0,27 -27,0 z M 945,486 l 27,0 0,27 -27,0 z M 972,486 l 27,0 0,27 -27,0 z M 108,513 l 27,0 0,27 -27,0 z M 189,513 l 27,0 0,27 -27,0 z M 297,513 l 27,0 0,27 -27,0 z M 378,513 l 27,0 0,27 -27,0 z M 405,513 l 27,0 0,27 -27,0 z M 432,513 l 27,0 0,27 -27,0 z M 513,513 l 27,0 0,27 -27,0 z M 567,513 l 27,0 0,27 -27,0 z M 594,513 l 27,0 0,27 -27,0 z M 621,513 l 27,0 0,27 -27,0 z M 756,513 l 27,0 0,27 -27,0 z M 783,513 l 27,0 0,27 -27,0 z M 810,513 l 27,0 0,27 -27,0 z M 864,513 l 27,0 0,27 -27,0 z M 972,513 l 27,0 0,27 -27,0 z M 0,540 l 27,0 0,27 -27,0 z M 27,540 l 27,0 0,27 -27,0 z M 54,540 l 27,0 0,27 -27,0 z M 81,540 l 27,0 0,27 -27,0 z M 108,540 l 27,0 0,27 -27,0 z M 162,540 l 27,0 0,27 -27,0 z M 189,540 l 27,0 0,27 -27,0 z M 297,540 l 27,0 0,27 -27,0 z M 324,540 l 27,0 0,27 -27,0 z M 378,540 l 27,0 0,27 -27,0 z M 459,540 l 27,0 0,27 -27,0 z M 540,540 l 27,0 0,27 -27,0 z M 594,540 l 27,0 0,27 -27,0 z M 621,540 l 27,0 0,27 -27,0 z M 648,540 l 27,0 0,27 -27,0 z M 675,540 l 27,0 0,27 -27,0 z M 702,540 l 27,0 0,27 -27,0 z M 783,540 l 27,0 0,27 -27,0 z M 810,540 l 27,0 0,27 -27,0 z M 837,540 l 27,0 0,27 -27,0 z M 864,540 l 27,0 0,27 -27,0 z M 891,540 l 27,0 0,27 -27,0 z M 918,540 l 27,0 0,27 -27,0 z M 945,540 l 27,0 0,27 -27,0 z M 972,540 l 27,0 0,27 -27,0 z M 54,567 l 27,0 0,27 -27,0 z M 81,567 l 27,0 0,27 -27,0 z M 135,567 l 27,0 0,27 -27,0 z M 216,567 l 27,0 0,27 -27,0 z M 297,567 l 27,0 0,27 -27,0 z M 351,567 l 27,0 0,27 -27,0 z M 378,567 l 27,0 0,27 -27,0 z M 432,567 l 27,0 0,27 -27,0 z M 486,567 l 27,0 0,27 -27,0 z M 513,567 l 27,0 0,27 -27,0 z M 540,567 l 27,0 0,27 -27,0 z M 621,567 l 27,0 0,27 -27,0 z M 783,567 l 27,0 0,27 -27,0 z M 837,567 l 27,0 0,27 -27,0 z M 891,567 l 27,0 0,27 -27,0 z M 918,567 l 27,0 0,27 -27,0 z M 945,567 l 27,0 0,27 -27,0 z M 27,594 l 27,0 0,27 -27,0 z M 108,594 l 27,0 0,27 -27,0 z M 162,594 l 27,0 0,27 -27,0 z M 243,594 l 27,0 0,27 -27,0 z M 351,594 l 27,0 0,27 -27,0 z M 378,594 l 27,0 0,27 -27,0 z M 405,594 l 27,0 0,27 -27,0 z M 432,594 l 27,0 0,27 -27,0 z M 486,594 l 27,0 0,27 -27,0 z M 567,594 l 27,0 0,27 -27,0 z M 594,594 l 27,0 0,27 -27,0 z M 675,594 l 27,0 0,27 -27,0 z M 729,594 l 27,0 0,27 -27,0 z M 756,594 l 27,0 0,27 -27,0 z M 783,594 l 27,0 0,27 -27,0 z M 810,594 l 27,0 0,27 -27,0 z M 837,594 l 27,0 0,27 -27,0 z M 945,594 l 27,0 0,27 -27,0 z M 972,594 l 27,0 0,27 -27,0 z M 108,621 l 27,0 0,27 -27,0 z M 135,621 l 27,0 0,27 -27,0 z M 189,621 l 27,0 0,27 -27,0 z M 216,621 l 27,0 0,27 -27,0 z M 270,621 l 27,0 0,27 -27,0 z M 297,621 l 27,0 0,27 -27,0 z M 378,621 l 27,0 0,27 -27,0 z M 405,621 l 27,0 0,27 -27,0 z M 432,621 l 27,0 0,27 -27,0 z M 567,621 l 27,0 0,27 -27,0 z M 594,621 l 27,0 0,27 -27,0 z M 648,621 l 27,0 0,27 -27,0 z M 702,621 l 27,0 0,27 -27,0 z M 729,621 l 27,0 0,27 -27,0 z M 756,621 l 27,0 0,27 -27,0 z M 810,621 l 27,0 0,27 -27,0 z M 837,621 l 27,0 0,27 -27,0 z M 972,621 l 27,0 0,27 -27,0 z M 0,648 l 27,0 0,27 -27,0 z M 27,648 l 27,0 0,27 -27,0 z M 54,648 l 27,0 0,27 -27,0 z M 135,648 l 27,0 0,27 -27,0 z M 162,648 l 27,0 0,27 -27,0 z M 270,648 l 27,0 0,27 -27,0 z M 297,648 l 27,0 0,27 -27,0 z M 324,648 l 27,0 0,27 -27,0 z M 351,648 l 27,0 0,27 -27,0 z M 378,648 l 27,0 0,27 -27,0 z M 432,648 l 27,0 0,27 -27,0 z M 459,648 l 27,0 0,27 -27,0 z M 540,648 l 27,0 0,27 -27,0 z M 594,648 l 27,0 0,27 -27,0 z M 621,648 l 27,0 0,27 -27,0 z M 648,648 l 27,0 0,27 -27,0 z M 675,648 l 27,0 0,27 -27,0 z M 702,648 l 27,0 0,27 -27,0 z M 783,648 l 27,0 0,27 -27,0 z M 810,648 l 27,0 0,27 -27,0 z M 864,648 l 27,0 0,27 -27,0 z M 891,648 l 27,0 0,27 -27,0 z M 918,648 l 27,0 0,27 -27,0 z M 945,648 l 27,0 0,27 -27,0 z M 972,648 l 27,0 0,27 -27,0 z M 0,675 l 27,0 0,27 -27,0 z M 27,675 l 27,0 0,27 -27,0 z M 81,675 l 27,0 0,27 -27,0 z M 216,675 l 27,0 0,27 -27,0 z M 297,675 l 27,0 0,27 -27,0 z M 378,675 l 27,0 0,27 -27,0 z M 459,675 l 27,0 0,27 -27,0 z M 486,675 l 27,0 0,27 -27,0 z M 513,675 l 27,0 0,27 -27,0 z M 540,675 l 27,0 0,27 -27,0 z M 567,675 l 27,0 0,27 -27,0 z M 621,675 l 27,0 0,27 -27,0 z M 756,675 l 27,0 0,27 -27,0 z M 837,675 l 27,0 0,27 -27,0 z M 918,675 l 27,0 0,27 -27,0 z M 945,675 l 27,0 0,27 -27,0 z M 0,702 l 27,0 0,27 -27,0 z M 54,702 l 27,0 0,27 -27,0 z M 135,702 l 27,0 0,27 -27,0 z M 162,702 l 27,0 0,27 -27,0 z M 216,702 l 27,0 0,27 -27,0 z M 351,702 l 27,0 0,27 -27,0 z M 405,702 l 27,0 0,27 -27,0 z M 540,702 l 27,0 0,27 -27,0 z M 567,702 l 27,0 0,27 -27,0 z M 594,702 l 27,0 0,27 -27,0 z M 648,702 l 27,0 0,27 -27,0 z M 702,702 l 27,0 0,27 -27,0 z M 729,702 l 27,0 0,27 -27,0 z M 756,702 l 27,0 0,27 -27,0 z M 783,702 l 27,0 0,27 -27,0 z M 810,702 l 27,0 0,27 -27,0 z M 864,702 l 27,0 0,27 -27,0 z M 945,702 l 27,0 0,27 -27,0 z M 972,702 l 27,0 0,27 -27,0 z M 0,729 l 27,0 0,27 -27,0 z M 54,729 l 27,0 0,27 -27,0 z M 189,729 l 27,0 0,27 -27,0 z M 297,729 l 27,0 0,27 -27,0 z M 324,729 l 27,0 0,27 -27,0 z M 378,729 l 27,0 0,27 -27,0 z M 432,729 l 27,0 0,27 -27,0 z M 540,729 l 27,0 0,27 -27,0 z M 567,729 l 27,0 0,27 -27,0 z M 594,729 l 27,0 0,27 -27,0 z M 702,729 l 27,0 0,27 -27,0 z M 756,729 l 27,0 0,27 -27,0 z M 783,729 l 27,0 0,27 -27,0 z M 810,729 l 27,0 0,27 -27,0 z M 837,729 l 27,0 0,27 -27,0 z M 972,729 l 27,0 0,27 -27,0 z M 0,756 l 27,0 0,27 -27,0 z M 135,756 l 27,0 0,27 -27,0 z M 162,756 l 27,0 0,27 -27,0 z M 216,756 l 27,0 0,27 -27,0 z M 243,756 l 27,0 0,27 -27,0 z M 324,756 l 27,0 0,27 -27,0 z M 351,756 l 27,0 0,27 -27,0 z M 378,756 l 27,0 0,27 -27,0 z M 459,756 l 27,0 0,27 -27,0 z M 513,756 l 27,0 0,27 -27,0 z M 540,756 l 27,0 0,27 -27,0 z M 594,756 l 27,0 0,27 -27,0 z M 621,756 l 27,0 0,27 -27,0 z M 648,756 l 27,0 0,27 -27,0 z M 675,756 l 27,0 0,27 -27,0 z M 756,756 l 27,0 0,27 -27,0 z M 783,756 l 27,0 0,27 -27,0 z M 810,756 l 27,0 0,27 -27,0 z M 837,756 l 27,0 0,27 -27,0 z M 864,756 l 27,0 0,27 -27,0 z M 918,756 l 27,0 0,27 -27,0 z M 216,783 l 27,0 0,27 -27,0 z M 243,783 l 27,0 0,27 -27,0 z M 297,783 l 27,0 0,27 -27,0 z M 432,783 l 27,0 0,27 -27,0 z M 513,783 l 27,0 0,27 -27,0 z M 567,783 l 27,0 0,27 -27,0 z M 621,783 l 27,0 0,27 -27,0 z M 675,783 l 27,0 0,27 -27,0 z M 702,783 l 27,0 0,27 -27,0 z M 729,783 l 27,0 0,27 -27,0 z M 756,783 l 27,0 0,27 -27,0 z M 864,783 l 27,0 0,27 -27,0 z M 891,783 l 27,0 0,27 -27,0 z M 0,810 l 27,0 0,27 -27,0 z M 27,810 l 27,0 0,27 -27,0 z M 54,810 l 27,0 0,27 -27,0 z M 81,810 l 27,0 0,27 -27,0 z M 108,810 l 27,0 0,27 -27,0 z M 135,810 l 27,0 0,27 -27,0 z M 162,810 l 27,0 0,27 -27,0 z M 216,810 l 27,0 0,27 -27,0 z M 243,810 l 27,0 0,27 -27,0 z M 270,810 l 27,0 0,27 -27,0 z M 351,810 l 27,0 0,27 -27,0 z M 405,810 l 27,0 0,27 -27,0 z M 432,810 l 27,0 0,27 -27,0 z M 486,810 l 27,0 0,27 -27,0 z M 540,810 l 27,0 0,27 -27,0 z M 567,810 l 27,0 0,27 -27,0 z M 594,810 l 27,0 0,27 -27,0 z M 648,810 l 27,0 0,27 -27,0 z M 702,810 l 27,0 0,27 -27,0 z M 756,810 l 27,0 0,27 -27,0 z M 810,810 l 27,0 0,27 -27,0 z M 864,810 l 27,0 0,27 -27,0 z M 891,810 l 27,0 0,27 -27,0 z M 945,810 l 27,0 0,27 -27,0 z M 972,810 l 27,0 0,27 -27,0 z M 0,837 l 27,0 0,27 -27,0 z M 162,837 l 27,0 0,27 -27,0 z M 270,837 l 27,0 0,27 -27,0 z M 297,837 l 27,0 0,27 -27,0 z M 324,837 l 27,0 0,27 -27,0 z M 378,837 l 27,0 0,27 -27,0 z M 432,837 l 27,0 0,27 -27,0 z M 486,837 l 27,0 0,27 -27,0 z M 540,837 l 27,0 0,27 -27,0 z M 567,837 l 27,0 0,27 -27,0 z M 621,837 l 27,0 0,27 -27,0 z M 702,837 l 27,0 0,27 -27,0 z M 756,837 l 27,0 0,27 -27,0 z M 864,837 l 27,0 0,27 -27,0 z M 972,837 l 27,0 0,27 -27,0 z M 0,864 l 27,0 0,27 -27,0 z M 54,864 l 27,0 0,27 -27,0 z M 81,864 l 27,0 0,27 -27,0 z M 108,864 l 27,0 0,27 -27,0 z M 162,864 l 27,0 0,27 -27,0 z M 216,864 l 27,0 0,27 -27,0 z M 243,864 l 27,0 0,27 -27,0 z M 324,864 l 27,0 0,27 -27,0 z M 351,864 l 27,0 0,27 -27,0 z M 378,864 l 27,0 0,27 -27,0 z M 405,864 l 27,0 0,27 -27,0 z M 459,864 l 27,0 0,27 -27,0 z M 513,864 l 27,0 0,27 -27,0 z M 594,864 l 27,0 0,27 -27,0 z M 648,864 l 27,0 0,27 -27,0 z M 675,864 l 27,0 0,27 -27,0 z M 702,864 l 27,0 0,27 -27,0 z M 729,864 l 27,0 0,27 -27,0 z M 756,864 l 27,0 0,27 -27,0 z M 783,864 l 27,0 0,27 -27,0 z M 810,864 l 27,0 0,27 -27,0 z M 837,864 l 27,0 0,27 -27,0 z M 864,864 l 27,0 0,27 -27,0 z M 918,864 l 27,0 0,27 -27,0 z M 0,891 l 27,0 0,27 -27,0 z M 54,891 l 27,0 0,27 -27,0 z M 81,891 l 27,0 0,27 -27,0 z M 108,891 l 27,0 0,27 -27,0 z M 162,891 l 27,0 0,27 -27,0 z M 216,891 l 27,0 0,27 -27,0 z M 270,891 l 27,0 0,27 -27,0 z M 297,891 l 27,0 0,27 -27,0 z M 324,891 l 27,0 0,27 -27,0 z M 432,891 l 27,0 0,27 -27,0 z M 486,891 l 27,0 0,27 -27,0 z M 513,891 l 27,0 0,27 -27,0 z M 540,891 l 27,0 0,27 -27,0 z M 621,891 l 27,0 0,27 -27,0 z M 675,891 l 27,0 0,27 -27,0 z M 756,891 l 27,0 0,27 -27,0 z M 810,891 l 27,0 0,27 -27,0 z M 837,891 l 27,0 0,27 -27,0 z M 864,891 l 27,0 0,27 -27,0 z M 891,891 l 27,0 0,27 -27,0 z M 0,918 l 27,0 0,27 -27,0 z M 54,918 l 27,0 0,27 -27,0 z M 81,918 l 27,0 0,27 -27,0 z M 108,918 l 27,0 0,27 -27,0 z M 162,918 l 27,0 0,27 -27,0 z M 216,918 l 27,0 0,27 -27,0 z M 270,918 l 27,0 0,27 -27,0 z M 324,918 l 27,0 0,27 -27,0 z M 405,918 l 27,0 0,27 -27,0 z M 432,918 l 27,0 0,27 -27,0 z M 486,918 l 27,0 0,27 -27,0 z M 540,918 l 27,0 0,27 -27,0 z M 567,918 l 27,0 0,27 -27,0 z M 648,918 l 27,0 0,27 -27,0 z M 675,918 l 27,0 0,27 -27,0 z M 702,918 l 27,0 0,27 -27,0 z M 729,918 l 27,0 0,27 -27,0 z M 837,918 l 27,0 0,27 -27,0 z M 891,918 l 27,0 0,27 -27,0 z M 918,918 l 27,0 0,27 -27,0 z M 945,918 l 27,0 0,27 -27,0 z M 972,918 l 27,0 0,27 -27,0 z M 0,945 l 27,0 0,27 -27,0 z M 162,945 l 27,0 0,27 -27,0 z M 216,945 l 27,0 0,27 -27,0 z M 243,945 l 27,0 0,27 -27,0 z M 297,945 l 27,0 0,27 -27,0 z M 378,945 l 27,0 0,27 -27,0 z M 405,945 l 27,0 0,27 -27,0 z M 540,945 l 27,0 0,27 -27,0 z M 567,945 l 27,0 0,27 -27,0 z M 594,945 l 27,0 0,27 -27,0 z M 621,945 l 27,0 0,27 -27,0 z M 702,945 l 27,0 0,27 -27,0 z M 729,945 l 27,0 0,27 -27,0 z M 756,945 l 27,0 0,27 -27,0 z M 783,945 l 27,0 0,27 -27,0 z M 837,945 l 27,0 0,27 -27,0 z M 864,945 l 27,0 0,27 -27,0 z M 972,945 l 27,0 0,27 -27,0 z M 0,972 l 27,0 0,27 -27,0 z M 27,972 l 27,0 0,27 -27,0 z M 54,972 l 27,0 0,27 -27,0 z M 81,972 l 27,0 0,27 -27,0 z M 108,972 l 27,0 0,27 -27,0 z M 135,972 l 27,0 0,27 -27,0 z M 162,972 l 27,0 0,27 -27,0 z M 216,972 l 27,0 0,27 -27,0 z M 243,972 l 27,0 0,27 -27,0 z M 270,972 l 27,0 0,27 -27,0 z M 297,972 l 27,0 0,27 -27,0 z M 324,972 l 27,0 0,27 -27,0 z M 351,972 l 27,0 0,27 -27,0 z M 378,972 l 27,0 0,27 -27,0 z M 459,972 l 27,0 0,27 -27,0 z M 540,972 l 27,0 0,27 -27,0 z M 594,972 l 27,0 0,27 -27,0 z M 648,972 l 27,0 0,27 -27,0 z M 675,972 l 27,0 0,27 -27,0 z M 702,972 l 27,0 0,27 -27,0 z M 837,972 l 27,0 0,27 -27,0 z M 864,972 l 27,0 0,27 -27,0 z M 891,972 l 27,0 0,27 -27,0 z M 918,972 l 27,0 0,27 -27,0 z M 945,972 l 27,0 0,27 -27,0 z M 972,972 l 27,0 0,27 -27,0 z " />
	</g>
</svg>
